<?xml version="1.0" standalone="no"?>
<!DOCTYPE svg PUBLIC "-//W3C//DTD SVG 20010904//EN"
 "http://www.w3.org/TR/2001/REC-SVG-20010904/DTD/svg10.dtd">
<svg version="1.0" xmlns="http://www.w3.org/2000/svg"
 width="512.000000pt" height="512.000000pt" viewBox="0 0 512.000000 512.000000"
 preserveAspectRatio="xMidYMid meet">

<g transform="translate(0.000000,512.000000) scale(0.100000,-0.100000)"
fill="#000000" stroke="none">
<path d="M715 4384 c-302 -45 -488 -134 -657 -312 -38 -40 -58 -69 -58 -85 0
-39 402 -424 580 -556 337 -250 763 -366 1221 -332 l163 12 64 -63 c77 -76
152 -168 214 -263 46 -69 46 -71 38 -127 -29 -203 -19 -470 25 -694 62 -311
181 -549 377 -759 321 -343 804 -504 1392 -465 444 30 681 135 950 422 93 99
96 104 96 149 0 43 -4 50 -50 93 -55 52 -64 52 -143 -3 -110 -75 -258 -131
-434 -162 -164 -30 -526 -33 -651 -6 -370 82 -572 253 -716 606 -60 147 -106
419 -106 623 l0 98 1019 2 1020 3 30 29 31 30 0 173 c0 136 -4 192 -20 262
-111 499 -470 864 -960 975 -150 35 -415 38 -590 7 -273 -47 -524 -172 -746
-370 -196 -175 -352 -412 -444 -676 -17 -49 -32 -91 -34 -92 -1 -2 -30 33 -65
76 -175 222 -589 553 -896 715 -93 49 -1 14 130 -50 168 -81 316 -171 489
-295 76 -55 145 -98 152 -95 18 7 17 26 -6 122 -116 486 -551 892 -1059 988
-83 16 -302 28 -356 20z m3220 -616 c167 -36 313 -162 400 -342 87 -183 115
-497 50 -562 l-24 -24 -661 0 -660 0 0 63 c0 89 33 264 73 384 79 239 229 398
442 467 106 34 263 40 380 14z"/>
</g>
</svg>
